M48
; DRILL file {KiCad 8.0.3} date 2024-09-28T16:10:36+0200
; FORMAT={-:-/ absolute / inch / decimal}
; #@! TF.CreationDate,2024-09-28T16:10:36+02:00
; #@! TF.GenerationSoftware,Kicad,Pcbnew,8.0.3
; #@! TF.FileFunction,Plated,1,2,PTH
FMAT,2
INCH
; #@! TA.AperFunction,Plated,PTH,ComponentDrill
T1C0.0197
; #@! TA.AperFunction,Plated,PTH,ComponentDrill
T2C0.0236
; #@! TA.AperFunction,Plated,PTH,ComponentDrill
T3C0.0300
; #@! TA.AperFunction,Plated,PTH,ComponentDrill
T4C0.0354
; #@! TA.AperFunction,Plated,PTH,ComponentDrill
T5C0.0394
; #@! TA.AperFunction,Plated,PTH,ComponentDrill
T6C0.0398
; #@! TA.AperFunction,Plated,PTH,ComponentDrill
T7C0.1063
%
G90
G05
T1
X8.7087Y-3.4882
X8.7106Y-2.9035
X8.7106Y-3.1417
X8.7106Y-4.0157
X8.7106Y-4.3996
T3
X6.8169Y-2.2756
X6.8169Y-2.9921
X6.8169Y-3.1417
X6.8169Y-3.8583
X6.8169Y-4.0276
X6.8169Y-4.7441
X8.4252Y-2.2756
X8.4252Y-2.9921
X8.4252Y-3.1417
X8.4252Y-3.8583
X8.4252Y-4.0276
X8.4252Y-4.7441
T4
X6.4488Y-4.6274
X6.4488Y-4.7274
T5
X6.4449Y-4.0551
X6.4449Y-4.4094
X8.7352Y-2.6122
X8.7352Y-2.7106
X9.1053Y-3.8287
X9.1053Y-3.9272
X9.1053Y-4.2028
X9.1053Y-4.3012
X9.1053Y-4.5768
X9.1053Y-4.6752
X9.3933Y-2.613
X9.3933Y-2.7114
X9.4793Y-4.2028
X9.4793Y-4.3012
X9.4793Y-4.5768
X9.4793Y-4.6752
X9.4803Y-3.8287
X9.4803Y-3.9272
T6
X6.4094Y-3.6654
X6.4843Y-3.2638
T7
X8.9528Y-3.2047
X8.9528Y-3.4882
T2
G00X9.2106Y-3.0807
M15
G01X9.1673Y-3.0807
M16
G05
G00X9.2106Y-3.6122
M15
G01X9.1673Y-3.6122
M16
G05
T5
G00X5.9646Y-2.6309
M15
G01X5.9646Y-2.7096
M16
G05
G00X5.9646Y-3.1618
M15
G01X5.9646Y-3.2406
M16
G05
G00X5.9646Y-3.7795
M15
G01X5.9646Y-3.8583
M16
G05
G00X5.9646Y-4.2995
M15
G01X5.9646Y-4.3783
M16
G05
G00X6.0433Y-2.8553
M15
G01X6.122Y-2.8553
M16
G05
G00X6.0433Y-3.3862
M15
G01X6.122Y-3.3862
M16
G05
G00X6.0433Y-4.0039
M15
G01X6.122Y-4.0039
M16
G05
G00X6.0433Y-4.5239
M15
G01X6.122Y-4.5239
M16
G05
G00X6.2008Y-2.6309
M15
G01X6.2008Y-2.7096
M16
G05
G00X6.2008Y-3.1618
M15
G01X6.2008Y-3.2406
M16
G05
G00X6.2008Y-3.7795
M15
G01X6.2008Y-3.8583
M16
G05
G00X6.2008Y-4.2995
M15
G01X6.2008Y-4.3783
M16
G05
M30
